<svg width="392" height="388" viewBox="0 0 392 388" fill="none" xmlns="http://www.w3.org/2000/svg">
<path d="M338.108 317.728C314.712 342.408 283.663 360.506 246.415 367.813C160.648 384.636 44.7189 358.992 18.6117 264.429C2.69992 206.794 13.8414 139.383 46.5262 89.4451C82.4515 34.5557 147.307 -2.48227 213.685 0.129854C278.629 2.68558 342.285 53.81 369.191 110.672C403.12 182.378 388.048 265.047 338.108 317.728Z" fill="url(#paint0_linear_1616_1723)"/>
<g opacity="0.3">
<path d="M110.857 40.2193C110.194 40.6202 109.331 40.4075 108.931 39.7448C108.152 38.4571 107.306 37.1841 106.416 35.9609C105.966 35.3422 106.096 34.4783 106.703 34.0183C106.711 34.0129 106.718 34.0074 106.725 34.0017C107.351 33.5461 108.228 33.6844 108.684 34.3108C109.621 35.5982 110.512 36.9383 111.331 38.294C111.706 38.9137 111.544 39.7083 110.979 40.1363C110.94 40.1658 110.899 40.1939 110.857 40.2193ZM101.676 30.3051C100.628 29.2152 99.5233 28.1601 98.3918 27.1678C97.81 26.6576 97.7515 25.7715 98.262 25.189C98.7765 24.6063 99.6589 24.5489 100.241 25.0596C101.432 26.1034 102.594 27.2141 103.697 28.3607C104.234 28.9189 104.217 29.8068 103.658 30.3437C103.618 30.3827 103.575 30.4187 103.532 30.4519C102.973 30.8749 102.173 30.8228 101.676 30.3051ZM92.5213 22.7021C91.2606 21.8751 89.9486 21.0931 88.6208 20.3773C87.9393 20.0099 87.6846 19.1591 88.052 18.4774C88.4198 17.7969 89.2698 17.5414 89.9519 17.9086C91.35 18.6624 92.732 19.4861 94.0593 20.3569C94.707 20.7817 94.8874 21.6509 94.463 22.2987C94.3723 22.4367 94.2616 22.5536 94.1372 22.6479C93.6779 22.9958 93.0309 23.0363 92.5213 22.7021ZM81.8966 17.3375C80.4812 16.8126 79.0265 16.3435 77.5729 15.942C76.8264 15.7356 76.3882 14.9633 76.5944 14.217C76.8013 13.4707 77.5733 13.0331 78.3194 13.2384C79.85 13.6611 81.3812 14.1554 82.8711 14.7071C83.5972 14.9764 83.9678 15.7833 83.6986 16.5095C83.6023 16.7694 83.4372 16.9836 83.2315 17.1394C82.8623 17.4191 82.363 17.51 81.8966 17.3375ZM70.3415 14.4735C68.8485 14.2767 67.3256 14.1408 65.8159 14.0707C65.042 14.0342 64.4443 13.3778 64.4804 12.6043C64.5163 11.8301 65.1731 11.2324 65.9468 11.2692C67.5351 11.3431 69.1374 11.4861 70.7084 11.6933C71.4761 11.7943 72.0165 12.4988 71.915 13.2668C71.8642 13.6538 71.6598 13.9829 71.3715 14.2013C71.0877 14.4163 70.7225 14.5237 70.3415 14.4735ZM58.4408 14.2377C56.939 14.3759 55.4246 14.5806 53.9394 14.8459C53.177 14.9821 52.4483 14.4743 52.3123 13.7122C52.176 12.9497 52.6832 12.2212 53.446 12.0848C55.0089 11.8054 56.6033 11.5903 58.1838 11.4447C58.955 11.374 59.6376 11.9414 59.7088 12.7127C59.755 13.2136 59.5315 13.677 59.1578 13.96C58.9561 14.1126 58.7112 14.2128 58.4408 14.2377ZM14.6614 42.4355C13.9803 42.067 13.7269 41.2159 14.0956 40.5346C14.8511 39.1394 15.6777 37.7582 16.5525 36.43C16.9785 35.783 17.8482 35.604 18.495 36.0302C19.1417 36.4558 19.3205 37.3255 18.8948 37.9723C18.0641 39.2336 17.2793 40.5452 16.5622 41.8702C16.4637 42.0519 16.3312 42.203 16.1765 42.3203C15.7515 42.6419 15.1607 42.7061 14.6614 42.4355ZM46.7909 16.6441C45.3582 17.1127 43.9284 17.6491 42.5413 18.2392C41.8283 18.5421 41.0048 18.2099 40.7018 17.4973C40.3986 16.7843 40.7328 15.9643 41.4438 15.6581C42.9046 15.037 44.4103 14.4719 45.9191 13.9786C46.6552 13.738 47.4471 14.1394 47.6879 14.8758C47.8788 15.4596 47.6656 16.0786 47.2018 16.4298C47.0812 16.5212 46.9429 16.5942 46.7909 16.6441ZM21.3937 32.2349C20.8125 31.7233 20.7563 30.8369 21.268 30.2556C22.3165 29.0653 23.4305 27.9042 24.5778 26.8045C25.1352 26.2657 26.0248 26.2881 26.5607 26.847C27.0964 27.406 27.0774 28.2938 26.5183 28.8298C25.4277 29.8749 24.3691 30.9782 23.373 32.1098C23.3094 32.182 23.2398 32.2457 23.166 32.3015C22.6454 32.6955 21.9024 32.6831 21.3937 32.2349ZM35.973 21.593C34.682 22.3699 33.4077 23.2126 32.1852 24.0985C31.5581 24.5535 30.6814 24.4135 30.2267 23.7861C29.7783 23.1672 29.9088 22.3051 30.5152 21.8457C30.5231 21.8397 30.5311 21.8337 30.5393 21.8281C31.826 20.895 33.1676 20.0076 34.5261 19.1898C35.19 18.7908 36.0515 19.0048 36.451 19.6683C36.8241 20.2879 36.6615 21.081 36.0974 21.5083C36.058 21.5383 36.0161 21.5665 35.973 21.593Z" fill="#91B3FA"/>
<path d="M12.2915 51.3678C12.5116 51.2011 12.6852 50.968 12.7771 50.6853C13.0009 49.9977 13.2433 49.3038 13.4962 48.6216C13.7659 47.8958 13.396 47.0882 12.6701 46.8188C11.9441 46.5488 11.136 46.9183 10.8674 47.6453C10.6007 48.3625 10.3462 49.0927 10.1104 49.8161C9.87042 50.5523 10.273 51.3441 11.0089 51.5838C11.4631 51.7319 11.9378 51.6355 12.2915 51.3678Z" fill="#91B3FA"/>
</g>
<g opacity="0.3">
<path d="M15.9712 93.9622C16.5107 93.5536 16.6893 92.8026 16.3611 92.1861C16.0213 91.5481 15.689 90.8921 15.3741 90.2367C15.0385 89.5385 14.2006 89.2447 13.5027 89.5801C12.8018 89.9171 12.5108 90.7537 12.8462 91.4515C13.1781 92.1415 13.5277 92.8325 13.8854 93.5043C14.2494 94.1879 15.0987 94.447 15.7825 94.0831C15.8495 94.0473 15.9124 94.0067 15.9712 93.9622Z" fill="#91B3FA"/>
<path d="M94.8868 113.517C94.2473 113.954 93.3746 113.789 92.9377 113.149C92.5011 112.51 92.6657 111.639 93.3052 111.201C94.523 110.369 95.724 109.473 96.8894 108.527C97.4862 108.039 98.3741 108.131 98.8621 108.732C99.3501 109.334 99.2581 110.217 98.6569 110.705C98.152 111.115 97.6423 111.515 97.1279 111.904C96.394 112.46 95.6401 113.003 94.8868 113.517ZM102.269 105.561C101.704 105.031 101.675 104.144 102.205 103.579C103.222 102.494 104.205 101.355 105.124 100.193C105.603 99.5849 106.487 99.4829 107.095 99.9634C107.702 100.444 107.804 101.326 107.324 101.933C106.355 103.157 105.321 104.356 104.251 105.497C104.195 105.556 104.136 105.61 104.073 105.657C103.539 106.062 102.774 106.035 102.269 105.561ZM88.2958 117.384C86.8992 118.079 85.4537 118.724 83.999 119.301C83.279 119.587 82.464 119.234 82.1783 118.514C81.8929 117.794 82.2456 116.98 82.9652 116.694C84.3468 116.146 85.7193 115.534 87.0453 114.873C87.7387 114.528 88.5806 114.81 88.926 115.503C89.2314 116.117 89.0456 116.846 88.5185 117.245C88.4499 117.297 88.3756 117.344 88.2958 117.384ZM109.725 96.1244C109.058 95.7318 108.835 94.8719 109.228 94.2047C109.981 92.9253 110.688 91.5982 111.33 90.2609C111.665 89.562 112.502 89.2681 113.201 89.6035C113.899 89.9384 114.193 90.7759 113.858 91.474C113.182 92.8825 112.438 94.2799 111.645 95.6271C111.549 95.7898 111.425 95.9264 111.284 96.034C110.844 96.3667 110.229 96.4213 109.725 96.1244ZM76.7238 121.621C75.2095 121.992 73.6579 122.303 72.1121 122.546C71.3471 122.666 70.6297 122.144 70.5091 121.379C70.3884 120.614 70.9114 119.896 71.6764 119.776C73.1447 119.545 74.6184 119.249 76.0566 118.897C76.809 118.712 77.5682 119.173 77.7525 119.925C77.8897 120.486 77.6691 121.05 77.2367 121.378C77.0885 121.489 76.9154 121.574 76.7238 121.621ZM64.5031 123.217C62.9405 123.248 61.3582 123.214 59.8006 123.115C59.0276 123.065 58.4409 122.399 58.4901 121.626C58.5396 120.852 59.2059 120.265 59.9788 120.316C61.4589 120.41 62.9625 120.442 64.4476 120.413C65.222 120.398 65.862 121.013 65.8775 121.788C65.8865 122.254 65.6667 122.672 65.3211 122.934C65.093 123.107 64.8106 123.211 64.5031 123.217ZM52.2244 122.113C50.6912 121.802 49.154 121.424 47.6561 120.988C46.9122 120.772 46.485 119.994 46.7012 119.25C46.9179 118.505 47.696 118.079 48.4394 118.295C49.863 118.71 51.3232 119.069 52.7805 119.364C53.5396 119.517 54.0306 120.257 53.8769 121.016C53.8064 121.365 53.6124 121.657 53.3495 121.856C53.0398 122.09 52.6348 122.195 52.2244 122.113ZM40.4792 118.356C39.0511 117.718 37.6337 117.012 36.2664 116.256C35.5885 115.882 35.3423 115.029 35.7169 114.351C36.0907 113.674 36.9446 113.427 37.6225 113.802C38.9206 114.519 40.2663 115.189 41.6231 115.795C42.3302 116.111 42.6474 116.94 42.3316 117.647C42.2318 117.87 42.081 118.055 41.8989 118.193C41.5044 118.491 40.9634 118.572 40.4792 118.356ZM29.8412 112.106C28.5918 111.172 27.3659 110.171 26.1971 109.133C25.6182 108.618 25.5658 107.731 26.0806 107.153C26.5937 106.576 27.4812 106.521 28.0601 107.036C29.1703 108.023 30.3347 108.973 31.5214 109.861C32.1414 110.325 32.2682 111.204 31.8043 111.824C31.7235 111.932 31.6302 112.025 31.5278 112.103C31.0422 112.47 30.3532 112.49 29.8412 112.106ZM20.8443 103.683C20.0956 102.81 19.3645 101.904 18.6718 100.989C18.4207 100.657 18.1745 100.324 17.9321 99.9892C17.4784 99.362 17.6021 98.4787 18.2463 98.0315C18.8734 97.5773 19.7503 97.7178 20.2045 98.3454C20.4348 98.6637 20.6693 98.9809 20.9077 99.2958C21.5666 100.166 22.2609 101.027 22.9729 101.857C23.4772 102.444 23.4094 103.33 22.8216 103.834C22.7995 103.853 22.777 103.871 22.754 103.889C22.1676 104.332 21.3294 104.248 20.8443 103.683Z" fill="#91B3FA"/>
<path d="M116.207 85.0279C116.429 84.8595 116.604 84.6238 116.695 84.3386C116.927 83.6156 117.148 82.874 117.351 82.1344C117.557 81.3877 117.118 80.6156 116.372 80.41C115.625 80.2046 114.853 80.6422 114.647 81.3895C114.454 82.092 114.244 82.7963 114.024 83.4829C113.788 84.22 114.194 85.0096 114.932 85.246C115.384 85.3907 115.856 85.294 116.207 85.0279Z" fill="#91B3FA"/>
</g>
<path d="M105.226 63.6407C105.236 63.3612 105.068 63.1061 104.807 63.0055L97.3653 60.1329C96.6479 56.4772 95.3424 52.9099 93.441 49.581L97.1903 42.5459C97.3217 42.2991 97.2822 41.9961 97.0917 41.7912L90.5759 34.7843C90.3855 34.5794 90.086 34.518 89.8305 34.6312L82.5417 37.8603C79.3596 35.7223 75.8961 34.1614 72.3022 33.1807L69.9773 25.55C69.8958 25.2825 69.6536 25.0963 69.3742 25.0861L59.8121 24.7387C59.5327 24.7286 59.2775 24.8969 59.1769 25.1577L56.3044 32.5996C52.6488 33.3167 49.0813 34.6221 45.7524 36.5238L38.7172 32.7746C38.4705 32.643 38.1675 32.6825 37.9627 32.873L30.9555 39.3888C30.7508 39.5793 30.6894 39.8786 30.8026 40.1342L34.0317 47.423C31.8936 50.6051 30.3327 54.0686 29.3522 57.6625L21.7214 59.9874C21.4541 60.0689 21.2676 60.311 21.2575 60.5905L20.9101 70.1526C20.9 70.432 21.0682 70.6872 21.329 70.7878L28.7711 73.6604C29.4883 77.3161 30.7938 80.8834 32.6954 84.2123L28.9461 91.2476C28.8145 91.4943 28.854 91.7973 29.0444 92.0021L35.5603 99.0092C35.7508 99.2139 36.0501 99.2753 36.3057 99.1621L43.5945 95.9331C46.7766 98.0712 50.2401 99.6321 53.834 100.613L56.1589 108.243C56.2403 108.511 56.4825 108.697 56.762 108.707L66.3241 109.055C66.6035 109.065 66.8586 108.897 66.9593 108.636L69.8318 101.194C73.4874 100.477 77.0548 99.1712 80.3838 97.2697L87.419 101.019C87.6656 101.15 87.9686 101.111 88.1735 100.92L95.1804 94.4046C95.3851 94.2143 95.4467 93.9149 95.3333 93.6593L92.1044 86.3706C94.2425 83.1884 95.8032 79.725 96.7838 76.1311L104.415 73.8062C104.682 73.7248 104.868 73.4825 104.878 73.2031L105.226 63.6407Z" fill="#91B3FA"/>
<path d="M67.6942 75.3277C63.0446 77.8784 57.1868 76.1716 54.6357 71.5217C53.3997 69.2694 53.1151 66.6706 53.834 64.2043C54.5526 61.7383 56.1885 59.6989 58.4415 58.4634C63.0911 55.9127 68.9489 57.6196 71.5002 62.2694C73.8209 66.4994 72.6174 71.7294 68.8798 74.5598C68.5093 74.8404 68.1134 75.0976 67.6942 75.3277ZM55.9882 64.8322C55.437 66.7234 55.6553 68.7157 56.6029 70.4429C58.5587 74.0074 63.0504 75.3167 66.6152 73.3608C70.1817 71.4056 71.489 66.9133 69.5331 63.3483C67.5773 59.7839 63.0856 58.4745 59.5208 60.4304C59.1976 60.6079 58.8916 60.8066 58.6029 61.0252C57.3493 61.9744 56.4362 63.2952 55.9882 64.8322Z" fill="#BDD0FB"/>
<path d="M77.1093 85.7538C77.7513 85.2678 78.3724 84.7465 78.9703 84.1908C79.1584 84.0159 79.3438 83.8378 79.5262 83.6569C80.4259 82.7647 81.2531 81.8023 81.9951 80.7847C82.0052 80.7709 82.0153 80.7571 82.0256 80.7433C82.054 80.7039 82.0827 80.6643 82.1107 80.6244C82.1662 80.5474 82.2206 80.4697 82.2749 80.3921C82.4177 80.1878 82.4054 79.9216 82.2628 79.7327C82.2281 79.6869 82.1855 79.6457 82.1359 79.611C81.8819 79.4336 81.5326 79.4968 81.3551 79.75C80.4427 81.0573 79.3833 82.2747 78.2062 83.3687C72.3613 88.8057 64.3745 90.5331 57.1678 88.6604C53.1592 87.6193 49.3919 85.4636 46.3687 82.2122C45.8384 81.6421 45.3408 81.0495 44.8774 80.4371C41.7574 76.3161 40.163 71.2894 40.3533 66.0543C40.5716 60.041 43.1188 54.4724 47.5251 50.3751C56.6263 41.9136 70.9043 42.4354 79.3626 51.5314C79.8841 52.0923 80.3753 52.6774 80.8344 53.2841C82.8244 55.913 84.2172 58.948 84.9019 62.1764C84.9197 62.2597 84.9548 62.3348 85.0033 62.3984C85.1304 62.5661 85.3473 62.6552 85.5669 62.6085C85.8699 62.5433 86.0642 62.247 85.9992 61.9432C85.2802 58.5539 83.8184 55.3671 81.7292 52.6073C81.2473 51.9705 80.7317 51.3564 80.1845 50.7675C71.304 41.2173 56.3081 40.676 46.7613 49.5531C42.1352 53.8548 39.4616 59.7004 39.2324 66.0133C39.0323 71.5092 40.7064 76.7862 43.9816 81.1125C44.4684 81.7553 44.9908 82.3774 45.5469 82.9759C49.849 87.602 55.6946 90.2761 62.0073 90.5054C67.5043 90.7054 72.7826 89.0303 77.1093 85.7538Z" fill="#BDD0FB"/>
<g opacity="0.3">
<path d="M171.438 40.7068C171.737 40.4806 171.865 40.0774 171.725 39.7091C171.464 39.0216 171.179 38.3325 170.877 37.6614C170.681 37.2253 170.169 37.0308 169.732 37.2266C169.294 37.4213 169.101 37.9355 169.297 38.3718C169.585 39.0114 169.857 39.668 170.106 40.3241C170.275 40.771 170.775 40.9958 171.223 40.8267C171.302 40.7963 171.374 40.7556 171.438 40.7068Z" fill="#91B3FA"/>
<path d="M168.44 34.7705C168.031 35.0186 167.499 34.8892 167.25 34.4802C166.622 33.4489 165.935 32.4377 165.206 31.4755C165.052 31.2725 164.896 31.0707 164.736 30.8697C164.44 30.4947 164.504 29.95 164.879 29.6532C165.245 29.3868 165.798 29.4204 166.096 29.7958C166.262 30.0063 166.426 30.2175 166.587 30.4298C167.351 31.4386 168.072 32.4987 168.73 33.5805C168.963 33.9632 168.863 34.4554 168.513 34.7204C168.49 34.7379 168.466 34.7543 168.44 34.7705ZM161.803 27.592C160.762 26.5628 159.648 25.5886 158.493 24.6976C158.114 24.4052 158.043 23.8622 158.335 23.4829C158.627 23.1065 159.171 23.0335 159.55 23.3258C160.762 24.2598 161.93 25.2808 163.021 26.3601C163.361 26.6966 163.364 27.245 163.028 27.5856C162.998 27.6153 162.967 27.6426 162.934 27.6673C162.596 27.9232 162.113 27.8984 161.803 27.592ZM154.848 22.2345C153.589 21.4927 152.269 20.8227 150.926 20.2419C150.488 20.0521 150.286 19.5422 150.475 19.1034C150.666 18.6631 151.174 18.4616 151.614 18.6518C153.022 19.2604 154.406 19.9642 155.727 20.7414C156.139 20.9842 156.277 21.5154 156.034 21.9273C155.974 22.0274 155.898 22.1117 155.811 22.1781C155.539 22.3836 155.16 22.4175 154.848 22.2345ZM146.789 18.7494C145.384 18.3385 143.94 18.0112 142.5 17.7774C142.028 17.7003 141.707 17.2554 141.784 16.7835C141.861 16.3127 142.305 15.991 142.777 16.0673C144.289 16.3128 145.801 16.6559 147.275 17.0867C147.734 17.2207 147.997 17.7024 147.863 18.1615C147.809 18.3463 147.698 18.4997 147.555 18.608C147.344 18.768 147.063 18.8294 146.789 18.7494ZM138.123 17.3374C136.661 17.2806 135.182 17.3141 133.727 17.4358C133.25 17.4761 132.832 17.1218 132.791 16.645C132.751 16.1682 133.105 15.7488 133.582 15.7097C135.107 15.5817 136.658 15.5471 138.19 15.6059C138.668 15.6248 139.04 16.0271 139.022 16.5047C139.011 16.7747 138.879 17.011 138.679 17.1623C138.525 17.2791 138.331 17.3453 138.123 17.3374ZM129.377 18.0719C127.947 18.3721 126.522 18.7646 125.142 19.239C124.69 19.3945 124.196 19.1537 124.041 18.7015C123.886 18.2494 124.126 17.7579 124.579 17.6006C126.026 17.1032 127.521 16.6914 129.021 16.3764C129.49 16.2787 129.949 16.5781 130.047 17.046C130.118 17.3848 129.98 17.7191 129.722 17.915C129.623 17.9896 129.507 18.0448 129.377 18.0719ZM121.08 20.9218C119.771 21.5618 118.485 22.2928 117.257 23.095C116.857 23.356 116.32 23.2436 116.059 22.843C115.797 22.4429 115.913 21.9124 116.31 21.6436C117.597 20.8036 118.946 20.0371 120.319 19.3656C120.749 19.1557 121.267 19.3337 121.477 19.7633C121.662 20.1411 121.546 20.5885 121.223 20.8336C121.179 20.8669 121.131 20.8966 121.08 20.9218ZM109.326 28.8086C108.974 28.4836 108.953 27.936 109.278 27.5849C110.178 26.6131 111.146 25.6739 112.153 24.7957C112.306 24.6613 112.459 24.53 112.614 24.3993C112.969 24.0819 113.526 24.137 113.834 24.5042C114.143 24.8701 114.096 25.416 113.73 25.7247C113.585 25.8466 113.44 25.9706 113.295 26.0987C112.331 26.9391 111.407 27.835 110.549 28.7615C110.514 28.7998 110.476 28.834 110.436 28.8642C110.107 29.1131 109.638 29.0982 109.326 28.8086Z" fill="#91B3FA"/>
</g>
<g opacity="0.3">
<path d="M158.909 83.1198C157.694 84.0154 156.413 84.8441 155.104 85.5845C154.687 85.8193 154.159 85.6729 153.923 85.2561C153.688 84.8392 153.84 84.3133 154.252 84.0758C155.501 83.3704 156.722 82.5795 157.881 81.725C158.266 81.4409 158.809 81.5234 159.092 81.9083C159.374 82.2904 159.295 82.8271 158.918 83.1126C158.918 83.1126 158.912 83.1176 158.909 83.1198ZM161.168 80.1762C160.841 79.8281 160.857 79.2797 161.205 78.9522C162.253 77.9659 163.252 76.9062 164.173 75.8021C164.479 75.4379 165.026 75.3856 165.393 75.6929C165.761 75.9993 165.809 76.5448 165.503 76.9125C164.537 78.0694 163.491 79.18 162.393 80.2132C162.37 80.2351 162.346 80.2551 162.321 80.274C161.973 80.5375 161.475 80.502 161.168 80.1762ZM151.023 87.5698C149.627 88.1454 148.184 88.641 146.734 89.0421C146.273 89.1696 145.795 88.8989 145.668 88.4382C145.54 87.977 145.81 87.502 146.271 87.3722C147.655 86.9899 149.031 86.5174 150.364 85.9687C150.806 85.7865 151.312 85.9973 151.494 86.4389C151.647 86.8108 151.523 87.2276 151.217 87.4596C151.159 87.5034 151.094 87.5407 151.023 87.5698ZM166.995 73.5148C166.593 73.2557 166.477 72.7194 166.736 72.3175C167.516 71.1084 168.229 69.8396 168.855 68.5453C169.064 68.1155 169.582 67.9354 170.012 68.1426C170.442 68.3512 170.623 68.8692 170.414 69.2998C169.758 70.6573 169.01 71.9885 168.192 73.2564C168.135 73.3439 168.065 73.4179 167.987 73.4773C167.705 73.6908 167.309 73.7172 166.995 73.5148ZM142.299 89.9813C140.809 90.2039 139.289 90.3371 137.782 90.3783C137.304 90.3913 136.906 90.0139 136.893 89.5358C136.879 89.0575 137.256 88.6588 137.735 88.6462C139.173 88.6078 140.622 88.4802 142.043 88.2674C142.516 88.1969 142.957 88.5229 143.028 88.9966C143.077 89.3207 142.938 89.6302 142.694 89.8153C142.582 89.8999 142.448 89.9589 142.299 89.9813ZM133.25 90.2296C131.747 90.0883 130.238 89.8544 128.768 89.5347C128.3 89.4332 128.004 88.9725 128.106 88.5049C128.207 88.038 128.668 87.7406 129.136 87.8424C130.539 88.1469 131.977 88.3697 133.412 88.5047C133.888 88.5493 134.238 88.9719 134.193 89.4481C134.17 89.6996 134.041 89.9161 133.854 90.0579C133.687 90.184 133.474 90.2506 133.25 90.2296ZM124.401 88.3038C122.974 87.8067 121.565 87.2173 120.215 86.553C119.785 86.3415 119.609 85.8227 119.82 85.3934C120.03 84.9641 120.55 84.788 120.979 84.9983C122.267 85.6322 123.61 86.194 124.97 86.6672C125.422 86.8247 125.661 87.3187 125.503 87.7702C125.445 87.9382 125.34 88.0759 125.209 88.1754C124.986 88.3445 124.685 88.4025 124.401 88.3038Z" fill="#91B3FA"/>
<path d="M171.856 65.4754C171.989 65.3745 172.094 65.2342 172.152 65.0641C172.391 64.3623 172.61 63.6502 172.804 62.9477C172.93 62.4867 172.66 62.0095 172.198 61.8823C171.738 61.7568 171.261 62.0266 171.133 62.4875C170.949 63.1576 170.74 63.8369 170.512 64.5068C170.358 64.9596 170.601 65.4517 171.054 65.6055C171.336 65.7013 171.634 65.6432 171.856 65.4754Z" fill="#91B3FA"/>
</g>
<path d="M164.759 50.5924C164.766 50.4054 164.653 50.2346 164.479 50.1673L159.499 48.2451C159.019 45.799 158.145 43.4118 156.873 41.1843L159.382 36.4766C159.47 36.3114 159.443 36.1087 159.316 35.9716L154.956 31.2829C154.828 31.1458 154.628 31.1047 154.457 31.1805L149.58 33.3412C147.45 31.9105 145.133 30.866 142.728 30.2098L141.172 25.1037C141.118 24.9247 140.956 24.8 140.769 24.7932L134.37 24.5608C134.183 24.5541 134.012 24.6666 133.945 24.8412L132.023 29.8209C129.577 30.3009 127.189 31.1744 124.962 32.4468L120.254 29.938C120.089 29.8501 119.886 29.8765 119.749 30.0038L115.061 34.3639C114.924 34.4914 114.883 34.6917 114.958 34.8627L117.119 39.7401C115.688 41.8695 114.644 44.187 113.988 46.5919L108.882 48.1477C108.703 48.2021 108.578 48.3643 108.571 48.5512L108.339 54.9498C108.332 55.1367 108.445 55.3074 108.619 55.3747L113.599 57.2969C114.079 59.743 114.952 62.1302 116.225 64.3578L113.716 69.0654C113.628 69.2305 113.654 69.4333 113.782 69.5703L118.142 74.2591C118.269 74.3961 118.469 74.4372 118.641 74.3614L123.518 72.2006C125.647 73.6314 127.965 74.6758 130.37 75.332L131.925 80.438C131.98 80.6171 132.142 80.7416 132.329 80.7485L138.728 80.9809C138.915 80.9877 139.085 80.875 139.153 80.7005L141.075 75.7207C143.521 75.2407 145.908 74.3672 148.136 73.0947L152.843 75.6037C153.008 75.6917 153.211 75.6653 153.348 75.5378L158.037 71.1777C158.174 71.0502 158.215 70.8499 158.139 70.6789L155.979 65.8016C157.409 63.6722 158.454 61.3547 159.11 58.9498L164.216 57.3941C164.395 57.3396 164.52 57.1774 164.527 56.9905L164.759 50.5924Z" fill="#91B3FA"/>
<path d="M139.701 58.5144C138.166 59.3568 136.396 59.5507 134.716 59.0608C133.036 58.5716 131.647 57.457 130.805 55.9224C129.068 52.7557 130.23 48.7725 133.398 47.0269C136.566 45.2899 140.556 46.453 142.292 49.6194C143.134 51.1535 143.328 52.9238 142.839 54.6038C142.441 55.9694 141.63 57.1428 140.516 57.9863C140.26 58.1801 139.987 58.3568 139.701 58.5144ZM132.324 55.0887C132.943 56.2177 133.965 57.0376 135.201 57.398C136.436 57.7579 137.739 57.6151 138.867 56.9961C139.995 56.3754 140.815 55.3552 141.176 54.119C141.536 52.8837 141.393 51.5812 140.774 50.4531C139.496 48.1235 136.561 47.268 134.231 48.5455C134.021 48.6612 133.823 48.7898 133.637 48.9305C131.764 50.3486 131.161 52.9698 132.324 55.0887Z" fill="#BDD0FB"/>
<path d="M146.254 65.7707C146.691 65.4399 147.114 65.0841 147.524 64.7036C148.338 63.9475 149.075 63.1078 149.718 62.2055C149.746 62.1648 149.775 62.124 149.803 62.0833C150.024 61.7679 150.005 61.3568 149.785 61.0652C149.731 60.9944 149.665 60.9307 149.589 60.8774C149.197 60.6035 148.658 60.7017 148.383 61.0922C147.791 61.9403 147.105 62.7282 146.345 63.4346L146.345 63.4349C146.303 63.4737 146.26 63.5123 146.219 63.5503C144.404 65.206 142.245 66.3464 139.921 66.9182C138.659 67.2284 137.348 67.3704 136.016 67.334C136.005 67.3337 135.994 67.3334 135.983 67.3332C135.95 67.3318 135.917 67.3312 135.884 67.3297C131.991 67.188 128.387 65.5394 125.734 62.6866C125.39 62.3177 125.069 61.9342 124.768 61.5377C122.749 58.8699 121.717 55.6155 121.839 52.2261C121.981 48.3332 123.63 44.7289 126.483 42.0766C129.334 39.4269 133.05 38.041 136.943 38.1817C140.836 38.3234 144.441 39.9721 147.093 42.8249C147.431 43.1876 147.749 43.5666 148.046 43.959C149.334 45.6612 150.236 47.6257 150.679 49.7154C150.707 49.8443 150.761 49.9601 150.836 50.0582C151.032 50.3172 151.367 50.455 151.706 50.3828C152.174 50.2823 152.473 49.8242 152.373 49.3553C151.877 47.017 150.869 44.8185 149.428 42.9144C149.095 42.4748 148.74 42.051 148.362 41.6451C145.394 38.4532 141.361 36.6087 137.005 36.4505C132.65 36.2926 128.494 37.8359 125.303 40.8073C122.111 43.775 120.266 47.8075 120.109 52.1632C119.971 55.9547 121.126 59.5956 123.385 62.5803C123.721 63.0234 124.081 63.4529 124.465 63.8656C130.211 70.0444 139.667 70.7588 146.254 65.7707Z" fill="#BDD0FB"/>
<path d="M164.965 295.938L156.5 354.351H254.704L241.912 295.938H164.965Z" fill="url(#paint1_linear_1616_1723)"/>
<path d="M0 108.901V282.764C0 297.066 11.3974 308.762 25.6951 309.131C89.1981 310.769 311.301 314.739 371.752 313.848C382.142 313.695 390.558 305.381 390.858 294.994C392.024 254.603 393.917 157.477 386.911 112.386C385.436 102.89 377.42 95.789 367.816 95.4819C314.608 93.7797 79.1643 88.375 18.7419 89.7319C8.3209 89.9658 0 98.4781 0 108.901Z" fill="url(#paint2_linear_1616_1723)"/>
<path d="M10.9092 108.054V273.236C10.9092 281.586 17.6124 288.39 25.9621 288.515L363.055 292.68C371.333 292.804 378.118 286.144 378.149 277.865L378.713 114.16C378.735 108.24 374.019 103.39 368.101 103.246L22.9807 96.2731C16.3618 96.112 10.9092 101.434 10.9092 108.054Z" fill="#91B3FA"/>
<path d="M380.687 299.45C380.685 299.45 380.682 299.45 380.679 299.45L10.9013 293.15C10.6432 293.145 10.4375 292.932 10.442 292.675C10.4462 292.416 10.662 292.219 10.9174 292.215L380.695 298.515C380.953 298.52 381.159 298.733 381.154 298.991C381.15 299.246 380.942 299.45 380.687 299.45Z" fill="#91B3FA"/>
<path d="M199.446 307.145C197.067 307.145 195.131 305.21 195.131 302.831C195.131 300.452 197.067 298.516 199.446 298.516C201.825 298.516 203.761 300.452 203.761 302.831C203.761 305.21 201.825 307.145 199.446 307.145ZM199.446 299.451C197.582 299.451 196.066 300.967 196.066 302.831C196.066 304.694 197.582 306.211 199.446 306.211C201.31 306.211 202.826 304.694 202.826 302.831C202.826 300.967 201.31 299.451 199.446 299.451Z" fill="#91B3FA"/>
<path d="M275.856 369.882H132.129C128.224 369.882 125.292 367.102 126.047 364.116L127.891 356.822C128.446 354.629 130.859 353.018 133.725 352.929L272.284 348.605C275.278 348.512 277.929 350.101 278.582 352.381L281.907 363.998C282.77 367.017 279.824 369.882 275.856 369.882Z" fill="url(#paint3_linear_1616_1723)"/>
<path d="M209.5 354.904C209.245 354.904 209.037 354.699 209.033 354.444C209.029 354.185 209.235 353.973 209.493 353.969L215.431 353.883C215.679 353.884 215.901 354.085 215.905 354.343C215.909 354.602 215.703 354.814 215.444 354.818L209.507 354.904H209.5Z" fill="#91B3FA"/>
<path d="M131.368 365.86C131.344 365.86 131.319 365.859 131.294 365.854C131.039 365.814 130.865 365.574 130.906 365.319L131.753 360.015C132.208 357.164 134.633 355.065 137.519 355.023L200.495 354.102H200.502C200.757 354.102 200.965 354.307 200.969 354.562C200.973 354.821 200.767 355.033 200.508 355.036L137.533 355.958C135.102 355.993 133.06 357.761 132.676 360.162L131.829 365.467C131.793 365.697 131.594 365.86 131.368 365.86Z" fill="#91B3FA"/>
<g opacity="0.53">
<path d="M206.917 119.6H198.051V275.982H206.917V119.6Z" fill="white"/>
<path d="M221.731 119.6H212.865V275.982H221.731V119.6Z" fill="white"/>
<path d="M236.546 119.6H227.68V275.982H236.546V119.6Z" fill="white"/>
<path d="M251.36 119.6H242.494V275.982H251.36V119.6Z" fill="white"/>
<path d="M266.175 119.6H257.309V275.982H266.175V119.6Z" fill="white"/>
<path d="M280.989 119.6H272.123V275.982H280.989V119.6Z" fill="white"/>
<path d="M295.804 119.6H286.938V275.982H295.804V119.6Z" fill="white"/>
</g>
<path d="M206.917 194.143H198.051V275.984H206.917V194.143Z" fill="url(#paint4_linear_1616_1723)"/>
<path d="M221.731 222.27H212.865V275.983H221.731V222.27Z" fill="url(#paint5_linear_1616_1723)"/>
<path d="M236.546 152.754H227.68V275.983H236.546V152.754Z" fill="url(#paint6_linear_1616_1723)"/>
<path d="M251.36 246.379H242.494V275.983H251.36V246.379Z" fill="url(#paint7_linear_1616_1723)"/>
<path d="M266.175 169.229H257.309V275.982H266.175V169.229Z" fill="url(#paint8_linear_1616_1723)"/>
<path d="M280.989 187.713H272.123V275.983H280.989V187.713Z" fill="url(#paint9_linear_1616_1723)"/>
<path d="M295.804 207.805H286.938V275.984H295.804V207.805Z" fill="url(#paint10_linear_1616_1723)"/>
<path opacity="0.57" d="M51.8236 112.457C39.9279 112.457 30.2847 122.1 30.2847 133.996C30.2847 145.892 39.9279 155.535 51.8236 155.535C63.7194 155.535 73.3626 145.892 73.3626 133.996C73.3626 122.1 63.7194 112.457 51.8236 112.457ZM51.8236 146.267C45.0464 146.267 39.5524 140.773 39.5524 133.996C39.5524 127.219 45.0464 121.725 51.8236 121.725C58.6007 121.725 64.0948 127.219 64.0948 133.996C64.0948 140.773 58.6007 146.267 51.8236 146.267Z" fill="white"/>
<mask id="mask0_1616_1723" style="mask-type:luminance" maskUnits="userSpaceOnUse" x="30" y="112" width="44" height="44">
<path d="M51.8236 112.457C39.9279 112.457 30.2847 122.1 30.2847 133.996C30.2847 145.892 39.9279 155.535 51.8236 155.535C63.7194 155.535 73.3626 145.892 73.3626 133.996C73.3626 122.1 63.7194 112.457 51.8236 112.457ZM51.8236 146.267C45.0464 146.267 39.5524 140.773 39.5524 133.996C39.5524 127.219 45.0464 121.725 51.8236 121.725C58.6007 121.725 64.0948 127.219 64.0948 133.996C64.0948 140.773 58.6007 146.267 51.8236 146.267Z" fill="white"/>
</mask>
<g mask="url(#mask0_1616_1723)">
<path d="M85.7258 129.26H21.7446V156.336H85.7258V129.26Z" fill="url(#paint11_linear_1616_1723)"/>
</g>
<path opacity="0.57" d="M104.33 112.457C92.4338 112.457 82.7905 122.1 82.7905 133.996C82.7905 145.892 92.4338 155.535 104.33 155.535C116.225 155.535 125.869 145.892 125.869 133.996C125.868 122.1 116.225 112.457 104.33 112.457ZM104.33 146.267C97.5523 146.267 92.0583 140.773 92.0583 133.996C92.0583 127.219 97.5524 121.725 104.33 121.725C111.107 121.725 116.601 127.219 116.601 133.996C116.601 140.773 111.107 146.267 104.33 146.267Z" fill="white"/>
<mask id="mask1_1616_1723" style="mask-type:luminance" maskUnits="userSpaceOnUse" x="82" y="112" width="44" height="44">
<path d="M104.33 112.457C92.4338 112.457 82.7905 122.1 82.7905 133.996C82.7905 145.892 92.4338 155.535 104.33 155.535C116.225 155.535 125.869 145.892 125.869 133.996C125.868 122.1 116.225 112.457 104.33 112.457ZM104.33 146.267C97.5523 146.267 92.0583 140.773 92.0583 133.996C92.0583 127.219 97.5524 121.725 104.33 121.725C111.107 121.725 116.601 127.219 116.601 133.996C116.601 140.773 111.107 146.267 104.33 146.267Z" fill="white"/>
</mask>
<g mask="url(#mask1_1616_1723)">
<path d="M138.232 118.793H74.2505V156.335H138.232V118.793Z" fill="url(#paint12_linear_1616_1723)"/>
</g>
<path opacity="0.57" d="M156.835 112.457C144.939 112.457 135.296 122.1 135.296 133.996C135.296 145.892 144.939 155.535 156.835 155.535C168.731 155.535 178.374 145.892 178.374 133.996C178.374 122.1 168.731 112.457 156.835 112.457ZM156.835 146.267C150.058 146.267 144.564 140.773 144.564 133.996C144.564 127.219 150.058 121.725 156.835 121.725C163.612 121.725 169.106 127.219 169.106 133.996C169.106 140.773 163.612 146.267 156.835 146.267Z" fill="white"/>
<mask id="mask2_1616_1723" style="mask-type:luminance" maskUnits="userSpaceOnUse" x="135" y="112" width="44" height="44">
<path d="M156.835 112.457C144.939 112.457 135.296 122.1 135.296 133.996C135.296 145.892 144.939 155.535 156.835 155.535C168.731 155.535 178.374 145.892 178.374 133.996C178.374 122.1 168.731 112.457 156.835 112.457ZM156.835 146.267C150.058 146.267 144.564 140.773 144.564 133.996C144.564 127.219 150.058 121.725 156.835 121.725C163.612 121.725 169.106 127.219 169.106 133.996C169.106 140.773 163.612 146.267 156.835 146.267Z" fill="white"/>
</mask>
<g mask="url(#mask2_1616_1723)">
<path d="M190.738 142.797H126.756V156.335H190.738V142.797Z" fill="url(#paint13_linear_1616_1723)"/>
</g>
<path opacity="0.44" d="M173.375 276.849L35.2092 275.811C32.4835 275.79 30.2847 273.575 30.2847 270.849V199.862C30.2847 197.122 32.5061 194.9 35.2464 194.9H173.412C176.152 194.9 178.374 197.122 178.374 199.862V271.887C178.374 274.642 176.13 276.87 173.375 276.849Z" fill="white"/>
<path opacity="0.44" d="M151.944 226.95L134.178 208.166L108.703 235.874L90.7271 216.478L73.8686 235.536L60.9407 219.83L35.4629 246.355V265.537C35.4629 268.072 37.508 270.133 40.043 270.152L168.547 271.117C171.109 271.137 173.196 269.065 173.196 266.503V214.319L151.944 226.95Z" fill="white"/>
<path d="M152.52 226.428H152.053V271.117H152.52V226.428Z" fill="white"/>
<path d="M134.411 208.166H133.944V270.859H134.411V208.166Z" fill="white"/>
<path d="M108.936 235.537H108.469V270.669H108.936V235.537Z" fill="white"/>
<path d="M91.4386 217.166H90.9712V270.669H91.4386V217.166Z" fill="white"/>
<path d="M74.1021 234.967H73.6348V270.668H74.1021V234.967Z" fill="white"/>
<path d="M61.4483 218.498H60.981V270.326H61.4483V218.498Z" fill="white"/>
<path d="M61.2145 222.402C63.3706 222.402 65.1184 220.654 65.1184 218.498C65.1184 216.342 63.3706 214.594 61.2145 214.594C59.0584 214.594 57.3105 216.342 57.3105 218.498C57.3105 220.654 59.0584 222.402 61.2145 222.402Z" fill="url(#paint14_linear_1616_1723)"/>
<path d="M76.4404 234.968C76.4404 236.389 75.2889 237.54 73.8686 237.54C72.4483 237.54 71.2969 236.388 71.2969 234.968C71.2969 233.548 72.4483 232.396 73.8686 232.396C75.2889 232.396 76.4404 233.548 76.4404 234.968Z" fill="url(#paint15_linear_1616_1723)"/>
<path d="M93.7765 217.166C93.7765 218.586 92.6251 219.737 91.2047 219.737C89.7843 219.737 88.6328 218.586 88.6328 217.166C88.6328 215.745 89.7843 214.594 91.2047 214.594C92.625 214.594 93.7765 215.745 93.7765 217.166Z" fill="url(#paint16_linear_1616_1723)"/>
<path d="M111.274 235.537C111.274 236.957 110.123 238.108 108.703 238.108C107.282 238.108 106.131 236.957 106.131 235.537C106.131 234.116 107.282 232.965 108.703 232.965C110.123 232.965 111.274 234.116 111.274 235.537Z" fill="url(#paint17_linear_1616_1723)"/>
<path d="M136.749 208.167C136.749 209.588 135.598 210.739 134.178 210.739C132.757 210.739 131.606 209.588 131.606 208.167C131.606 206.747 132.757 205.596 134.178 205.596C135.598 205.596 136.749 206.747 136.749 208.167Z" fill="url(#paint18_linear_1616_1723)"/>
<path d="M154.858 226.429C154.858 227.85 153.707 229.001 152.287 229.001C150.866 229.001 149.715 227.85 149.715 226.429C149.715 225.009 150.866 223.857 152.287 223.857C153.707 223.857 154.858 225.009 154.858 226.429Z" fill="url(#paint19_linear_1616_1723)"/>
<g opacity="0.48">
<path d="M70.2077 183.084H32.3327C30.7484 183.084 29.4639 183.978 29.4639 185.082C29.4639 186.185 30.7482 187.08 32.3327 187.08H70.2077C71.7922 187.08 73.0765 186.185 73.0765 185.082C73.0765 183.978 71.7922 183.084 70.2077 183.084Z" fill="white"/>
<path d="M70.2077 174.236H32.3327C30.7484 174.236 29.4639 175.131 29.4639 176.234C29.4639 177.338 30.7482 178.232 32.3327 178.232H70.2077C71.7922 178.232 73.0765 177.338 73.0765 176.234C73.0765 175.131 71.7922 174.236 70.2077 174.236Z" fill="white"/>
<path d="M70.2077 165.391H32.3327C30.7484 165.391 29.4639 166.285 29.4639 167.388C29.4639 168.492 30.7482 169.386 32.3327 169.386H70.2077C71.7922 169.386 73.0765 168.492 73.0765 167.388C73.0765 166.285 71.7922 165.391 70.2077 165.391Z" fill="white"/>
</g>
<g opacity="0.48">
<path d="M122.856 183.084H84.9811C83.3968 183.084 82.1123 183.978 82.1123 185.082C82.1123 186.185 83.3967 187.08 84.9811 187.08H122.856C124.44 187.08 125.725 186.185 125.725 185.082C125.725 183.978 124.44 183.084 122.856 183.084Z" fill="white"/>
<path d="M122.856 174.236H84.9811C83.3968 174.236 82.1123 175.131 82.1123 176.234C82.1123 177.338 83.3967 178.232 84.9811 178.232H122.856C124.44 178.232 125.725 177.338 125.725 176.234C125.725 175.131 124.44 174.236 122.856 174.236Z" fill="white"/>
<path d="M122.856 165.391H84.9811C83.3968 165.391 82.1123 166.285 82.1123 167.388C82.1123 168.492 83.3967 169.386 84.9811 169.386H122.856C124.44 169.386 125.725 168.492 125.725 167.388C125.725 166.285 124.44 165.391 122.856 165.391Z" fill="white"/>
</g>
<g opacity="0.48">
<path d="M175.505 183.084H137.63C136.046 183.084 134.761 183.978 134.761 185.082C134.761 186.185 136.046 187.08 137.63 187.08H175.505C177.089 187.08 178.374 186.185 178.374 185.082C178.374 183.978 177.089 183.084 175.505 183.084Z" fill="white"/>
<path d="M175.505 174.236H137.63C136.046 174.236 134.761 175.131 134.761 176.234C134.761 177.338 136.046 178.232 137.63 178.232H175.505C177.089 178.232 178.374 177.338 178.374 176.234C178.374 175.131 177.089 174.236 175.505 174.236Z" fill="white"/>
<path d="M175.505 165.391H137.63C136.046 165.391 134.761 166.285 134.761 167.388C134.761 168.492 136.046 169.386 137.63 169.386H175.505C177.089 169.386 178.374 168.492 178.374 167.388C178.374 166.285 177.089 165.391 175.505 165.391Z" fill="white"/>
</g>
<path d="M335.752 208.922C345.431 208.922 353.277 201.075 353.277 191.396C353.277 181.717 345.431 173.871 335.752 173.871C326.073 173.871 318.227 181.717 318.227 191.396C318.227 201.075 326.073 208.922 335.752 208.922Z" fill="url(#paint20_linear_1616_1723)"/>
<path d="M346.165 187.692C346.708 189.011 347.009 190.455 347.009 191.97C347.009 198.187 341.969 203.227 335.752 203.227C329.535 203.227 324.495 198.187 324.495 191.97C324.495 185.753 329.535 180.713 335.752 180.713C335.942 180.713 336.132 180.718 336.32 180.727V177.874C336.131 177.866 335.942 177.861 335.752 177.861C327.96 177.861 321.644 184.178 321.644 191.97C321.644 199.762 327.96 206.078 335.752 206.078C343.544 206.078 349.861 199.762 349.861 191.97C349.861 190.051 349.477 188.222 348.783 186.555L346.165 187.692Z" fill="#91B3FA"/>
<path opacity="0.5" d="M350.156 216.346H321.597C319.805 216.346 318.352 217.799 318.352 219.592C318.352 221.384 319.805 222.837 321.597 222.837H350.156C351.949 222.837 353.402 221.384 353.402 219.592C353.402 217.799 351.949 216.346 350.156 216.346Z" fill="white"/>
<path d="M335.677 152.593C345.355 152.593 353.202 144.747 353.202 135.068C353.202 125.389 345.355 117.543 335.677 117.543C325.998 117.543 318.151 125.389 318.151 135.068C318.151 144.747 325.998 152.593 335.677 152.593Z" fill="url(#paint21_linear_1616_1723)"/>
<path d="M341.634 145.166C339.897 146.262 337.841 146.898 335.636 146.898C329.419 146.898 324.379 141.859 324.379 135.642C324.379 129.425 329.419 124.385 335.636 124.385C335.826 124.385 336.015 124.39 336.204 124.399V121.546C336.015 121.538 335.826 121.533 335.636 121.533C327.844 121.533 321.527 127.85 321.527 135.642C321.527 143.433 327.844 149.75 335.636 149.75C338.355 149.75 340.894 148.98 343.048 147.647L341.634 145.166Z" fill="#91B3FA"/>
<path opacity="0.5" d="M350.231 160.018H321.672C319.88 160.018 318.427 161.471 318.427 163.263C318.427 165.056 319.88 166.509 321.672 166.509H350.231C352.024 166.509 353.477 165.056 353.477 163.263C353.477 161.471 352.024 160.018 350.231 160.018Z" fill="white"/>
<path opacity="0.91" d="M348.202 260.406C355.046 253.562 355.046 242.466 348.202 235.622C341.358 228.778 330.262 228.778 323.418 235.622C316.574 242.466 316.574 253.562 323.418 260.406C330.262 267.25 341.358 267.25 348.202 260.406Z" fill="white"/>
<path d="M345.359 254.342C343.333 257.316 339.92 259.27 336.049 259.27C329.832 259.27 324.792 254.23 324.792 248.013C324.792 241.796 329.832 236.756 336.049 236.756C336.24 236.756 336.429 236.761 336.617 236.77V233.917C336.429 233.909 336.24 233.904 336.049 233.904C328.258 233.904 321.941 240.221 321.941 248.013C321.941 255.805 328.258 262.121 336.049 262.121C340.87 262.121 345.124 259.703 347.669 256.015L345.359 254.342Z" fill="url(#paint22_linear_1616_1723)"/>
<path opacity="0.5" d="M321.535 278.878H350.094C351.886 278.878 353.339 277.425 353.339 275.633C353.339 273.84 351.886 272.387 350.094 272.387H321.535C319.742 272.387 318.289 273.84 318.289 275.633C318.289 277.425 319.742 278.878 321.535 278.878Z" fill="white"/>
<path d="M341.86 374.385C341.86 374.385 342.616 378.667 342.987 382.905C343.132 384.562 341.855 386 340.194 386.069C334.549 386.304 322.476 386.761 318.143 386.568C317.492 386.539 317.066 385.872 317.307 385.266C317.509 384.759 317.899 384.348 318.395 384.12L338.338 374.954L341.86 374.385Z" fill="url(#paint23_linear_1616_1723)"/>
<path d="M342.479 371.869L341.872 376.991C341.872 376.991 338.378 378.617 335.992 376.786L337.439 371.078L342.479 371.869Z" fill="url(#paint24_linear_1616_1723)"/>
<path d="M342.023 275.583C342.285 276.92 343.431 342.326 336.44 371.636C336.326 372.115 336.569 372.607 337.024 372.793C338.096 373.231 340.198 373.866 342.717 373.951C343.498 373.977 344.197 373.47 344.417 372.721C346.416 365.92 355.992 331.848 357.241 299.3C358.637 262.93 357.241 298.061 357.241 298.061L356.423 275.58L342.023 275.583Z" fill="url(#paint25_linear_1616_1723)"/>
<path d="M364.802 376.619C364.802 376.619 366.006 378.781 367.171 384.525C367.382 385.562 366.657 386.555 365.603 386.658C363.74 386.842 360.87 387.077 358.572 387.061C357.512 387.054 356.686 386.132 356.813 385.08C357.068 382.983 357.861 379.543 360.311 376.862L364.802 376.619Z" fill="url(#paint26_linear_1616_1723)"/>
<path d="M365.859 370.031L364.439 377.777C364.439 377.777 363.035 378.821 360.258 378.064L360.936 369.73L365.859 370.031Z" fill="url(#paint27_linear_1616_1723)"/>
<path d="M369.695 277.589C375.413 312.097 368.455 362.879 366.108 372.819C365.964 373.427 365.473 373.893 364.856 373.996C363.809 374.169 362.084 374.311 360.384 373.817C359.798 373.647 359.387 373.119 359.363 372.509C359.048 364.473 359.615 315.142 354.287 295.647C354.017 294.659 353.413 293.797 352.579 293.204L342.238 285.852L341.445 273.969L369.695 277.589Z" fill="url(#paint28_linear_1616_1723)"/>
<path d="M333.259 212.203C350.395 211.92 369.302 216.703 369.302 216.703C374.41 246.507 370.196 280.883 370.196 280.883C356.93 284.362 341.965 278.757 341.965 278.757C339.76 266.299 329.472 231.24 329.472 231.24C321.1 230.201 314.203 227.786 308.523 224.592C312.855 219.57 314.898 213.18 315.785 209.402C321.843 211.285 327.974 212.291 333.259 212.203Z" fill="url(#paint29_linear_1616_1723)"/>
<path d="M282.644 186.963C284.327 184.93 286.457 185.891 286.457 185.891C288.979 196.543 302.201 205.18 315.785 209.402C314.898 213.179 312.856 219.569 308.523 224.591C285.979 211.916 282.644 186.963 282.644 186.963Z" fill="url(#paint30_linear_1616_1723)"/>
<path d="M283.052 187.479C282.876 188.039 284.915 188.892 286.116 186.602C286.158 185.504 286.826 180.802 286.17 179.908C282.677 175.146 275.905 169.176 275.905 169.176C274.76 170.305 275.703 171.415 275.703 171.415L278.988 174.837C278.301 176.079 277.463 177.127 277.07 178.629C276.773 179.766 276.955 180.982 277.529 182.017C278.106 183.056 278.893 184.407 279.636 185.464C281.044 187.464 283.052 187.479 283.052 187.479Z" fill="url(#paint31_linear_1616_1723)"/>
<path d="M280.425 177.057L283.419 179.595L284.359 182.121L281.69 185.083C281.69 185.083 280.793 180.069 280.125 178.984C279.458 177.899 279.804 177.374 280.425 177.057Z" fill="url(#paint32_linear_1616_1723)"/>
<path d="M362.73 233.294L369.303 216.701C369.303 216.701 385.308 227.576 387.941 241.365C384.916 241.588 379.413 242.374 374.026 245.094C372.843 238.583 362.73 233.294 362.73 233.294Z" fill="url(#paint33_linear_1616_1723)"/>
<path d="M348.743 248.907C348.743 248.907 366.713 259.063 372.777 250.391C374.036 248.59 374.337 246.8 374.027 245.094C379.413 242.375 384.916 241.588 387.941 241.365C388.734 245.522 388.315 249.943 385.872 254.411C375.251 273.84 346.365 253.338 346.365 253.338L348.743 248.907Z" fill="url(#paint34_linear_1616_1723)"/>
<path d="M350.902 261.754L341.094 227.504C340.983 227.115 340.651 226.832 340.25 226.785C338.473 226.577 333.324 225.995 327.379 225.493C320.218 224.887 311.902 224.396 306.932 224.814C306.226 224.873 305.799 225.62 306.113 226.256C308.939 231.973 320.563 255.229 326.384 262.847C326.576 263.099 326.875 263.247 327.192 263.244L349.948 263.032C350.61 263.026 351.084 262.391 350.902 261.754Z" fill="url(#paint35_linear_1616_1723)"/>
<path d="M326.361 222.524L319.251 221.339C318.872 221.276 318.562 221.638 318.682 222.003L319.386 224.136C319.447 224.321 319.609 224.456 319.803 224.482L326.646 225.396C327 225.443 327.291 225.121 327.21 224.773L326.774 222.911C326.727 222.711 326.564 222.558 326.361 222.524Z" fill="url(#paint36_linear_1616_1723)"/>
<path d="M331.685 228.544L331.1 225.493C331.041 225.187 330.788 224.955 330.478 224.924L316.116 223.467C315.633 223.418 315.246 223.861 315.359 224.333L316.272 228.135C316.345 228.439 316.61 228.659 316.923 228.675L330.957 229.381C331.414 229.404 331.772 228.993 331.685 228.544Z" fill="url(#paint37_linear_1616_1723)"/>
<path d="M348.532 253.48C348.532 253.48 349.899 247.863 349.347 245.87C348.796 243.877 347.729 241.314 344.17 241.883C340.61 242.453 336.412 243.952 336.412 243.952C336.412 243.952 336.624 246.548 339.329 245.711L337.652 247.009C337.652 247.009 337.892 249.087 340.176 247.977L338.616 249.698C338.616 249.698 339.597 251.405 341.278 250.31C342.96 249.215 343.765 254.157 348.532 253.48Z" fill="url(#paint38_linear_1616_1723)"/>
<path d="M350.616 198.291L356.069 214.059C356.159 214.32 356.052 214.609 355.81 214.743C354.323 215.565 348.969 217.94 342.516 213.849C341.844 213.423 341.386 212.728 341.284 211.938L339.519 198.291L350.616 198.291Z" fill="url(#paint39_linear_1616_1723)"/>
<path d="M338.41 182.002C338.245 182.23 333.122 200.089 333.122 200.089L343.381 202.798L350.752 186.593C350.752 186.593 341.158 178.184 338.41 182.002Z" fill="url(#paint40_linear_1616_1723)"/>
<path d="M346.678 187.793C346.93 188.194 346.982 188.685 346.821 189.129L343.655 197.836C343.607 197.968 343.543 198.092 343.46 198.205C343.004 198.832 341.391 200.709 339.519 198.942C337.924 197.436 336.437 196.074 335.048 195.662C334.236 195.422 333.389 195.904 333.158 196.719C332.684 198.396 331.795 201.8 331.43 204.935C331.338 205.721 331.874 206.442 332.651 206.594C334.7 206.995 338.724 207.658 342.144 207.472C342.706 207.441 343.203 207.105 343.443 206.596C344.495 204.354 347.47 198.083 348.583 196.442C349.616 194.918 352.073 194.94 353.198 195.04C353.625 195.078 354.045 194.938 354.363 194.651C355.317 193.79 356.889 191.803 354.631 189.393C354.07 188.794 354.112 187.843 354.7 187.269C355.752 186.241 356.773 184.497 355.057 182.327C353.321 180.129 351.023 180.347 349.523 180.833C348.86 181.048 348.101 180.825 347.717 180.243C347.547 179.983 347.271 179.788 346.827 179.784C345.99 179.777 345.319 179.143 345.321 178.307C345.323 176.872 344.771 175.116 342.329 174.33C337.849 172.89 335.007 177.204 334.7 180.44C334.392 183.676 339.337 184.961 342.254 184.77C344.397 184.63 345.986 186.69 346.678 187.793Z" fill="url(#paint41_linear_1616_1723)"/>
<path d="M347.381 199.647C347.381 199.647 348.159 194.032 350.5 193.778C352.842 193.524 355.1 195.468 352.746 198.602C349.817 202.5 347.381 199.647 347.381 199.647Z" fill="url(#paint42_linear_1616_1723)"/>
<defs>
<linearGradient id="paint0_linear_1616_1723" x1="416.744" y1="429.109" x2="155.787" y2="151.317" gradientUnits="userSpaceOnUse">
<stop stop-color="#DAE3FE"/>
<stop offset="1" stop-color="#E9EFFD"/>
</linearGradient>
<linearGradient id="paint1_linear_1616_1723" x1="221.658" y1="274.816" x2="184.624" y2="432.447" gradientUnits="userSpaceOnUse">
<stop stop-color="#09005D"/>
<stop offset="1" stop-color="#1A0F91"/>
</linearGradient>
<linearGradient id="paint2_linear_1616_1723" x1="203.279" y1="14.5779" x2="190.934" y2="308.947" gradientUnits="userSpaceOnUse">
<stop stop-color="#09005D"/>
<stop offset="1" stop-color="#1A0F91"/>
</linearGradient>
<linearGradient id="paint3_linear_1616_1723" x1="202.193" y1="255.254" x2="204.092" y2="371.103" gradientUnits="userSpaceOnUse">
<stop stop-color="#09005D"/>
<stop offset="1" stop-color="#1A0F91"/>
</linearGradient>
<linearGradient id="paint4_linear_1616_1723" x1="217.495" y1="205.765" x2="256.902" y2="128.849" gradientUnits="userSpaceOnUse">
<stop stop-color="#4F52FF"/>
<stop offset="1" stop-color="#4042E2"/>
</linearGradient>
<linearGradient id="paint5_linear_1616_1723" x1="234.936" y1="214.7" x2="274.344" y2="137.784" gradientUnits="userSpaceOnUse">
<stop stop-color="#4F52FF"/>
<stop offset="1" stop-color="#4042E2"/>
</linearGradient>
<linearGradient id="paint6_linear_1616_1723" x1="232.565" y1="213.485" x2="271.973" y2="136.569" gradientUnits="userSpaceOnUse">
<stop stop-color="#4F52FF"/>
<stop offset="1" stop-color="#4042E2"/>
</linearGradient>
<linearGradient id="paint7_linear_1616_1723" x1="263.297" y1="229.231" x2="302.704" y2="152.315" gradientUnits="userSpaceOnUse">
<stop stop-color="#4F52FF"/>
<stop offset="1" stop-color="#4042E2"/>
</linearGradient>
<linearGradient id="paint8_linear_1616_1723" x1="259.377" y1="227.222" x2="298.784" y2="150.305" gradientUnits="userSpaceOnUse">
<stop stop-color="#4F52FF"/>
<stop offset="1" stop-color="#4042E2"/>
</linearGradient>
<linearGradient id="paint9_linear_1616_1723" x1="274.861" y1="235.156" x2="314.269" y2="158.24" gradientUnits="userSpaceOnUse">
<stop stop-color="#4F52FF"/>
<stop offset="1" stop-color="#4042E2"/>
</linearGradient>
<linearGradient id="paint10_linear_1616_1723" x1="290.672" y1="243.257" x2="330.08" y2="166.341" gradientUnits="userSpaceOnUse">
<stop stop-color="#4F52FF"/>
<stop offset="1" stop-color="#4042E2"/>
</linearGradient>
<linearGradient id="paint11_linear_1616_1723" x1="144.807" y1="7.82283" x2="25.6346" y2="184.445" gradientUnits="userSpaceOnUse">
<stop stop-color="#FF928E"/>
<stop offset="1" stop-color="#FE7062"/>
</linearGradient>
<linearGradient id="paint12_linear_1616_1723" x1="178.461" y1="30.5292" x2="59.2881" y2="207.152" gradientUnits="userSpaceOnUse">
<stop stop-color="#FF928E"/>
<stop offset="1" stop-color="#FE7062"/>
</linearGradient>
<linearGradient id="paint13_linear_1616_1723" x1="220.106" y1="58.6281" x2="100.933" y2="235.25" gradientUnits="userSpaceOnUse">
<stop stop-color="#FF928E"/>
<stop offset="1" stop-color="#FE7062"/>
</linearGradient>
<linearGradient id="paint14_linear_1616_1723" x1="64.4796" y1="208.626" x2="48.0988" y2="258.15" gradientUnits="userSpaceOnUse">
<stop stop-color="#FEBBBA"/>
<stop offset="1" stop-color="#FF928E"/>
</linearGradient>
<linearGradient id="paint15_linear_1616_1723" x1="76.0195" y1="228.466" x2="65.2284" y2="261.09" gradientUnits="userSpaceOnUse">
<stop stop-color="#FEBBBA"/>
<stop offset="1" stop-color="#FF928E"/>
</linearGradient>
<linearGradient id="paint16_linear_1616_1723" x1="93.3555" y1="210.663" x2="82.5645" y2="243.287" gradientUnits="userSpaceOnUse">
<stop stop-color="#FEBBBA"/>
<stop offset="1" stop-color="#FF928E"/>
</linearGradient>
<linearGradient id="paint17_linear_1616_1723" x1="110.853" y1="229.034" x2="100.062" y2="261.658" gradientUnits="userSpaceOnUse">
<stop stop-color="#FEBBBA"/>
<stop offset="1" stop-color="#FF928E"/>
</linearGradient>
<linearGradient id="paint18_linear_1616_1723" x1="136.329" y1="201.665" x2="125.538" y2="234.289" gradientUnits="userSpaceOnUse">
<stop stop-color="#FEBBBA"/>
<stop offset="1" stop-color="#FF928E"/>
</linearGradient>
<linearGradient id="paint19_linear_1616_1723" x1="154.437" y1="219.926" x2="143.647" y2="252.55" gradientUnits="userSpaceOnUse">
<stop stop-color="#4F52FF"/>
<stop offset="1" stop-color="#4042E2"/>
</linearGradient>
<linearGradient id="paint20_linear_1616_1723" x1="318.227" y1="191.396" x2="353.277" y2="191.396" gradientUnits="userSpaceOnUse">
<stop stop-color="#DAE3FE"/>
<stop offset="1" stop-color="#E9EFFD"/>
</linearGradient>
<linearGradient id="paint21_linear_1616_1723" x1="318.151" y1="135.068" x2="353.202" y2="135.068" gradientUnits="userSpaceOnUse">
<stop stop-color="#DAE3FE"/>
<stop offset="1" stop-color="#E9EFFD"/>
</linearGradient>
<linearGradient id="paint22_linear_1616_1723" x1="356.086" y1="228.996" x2="301.846" y2="280.472" gradientUnits="userSpaceOnUse">
<stop stop-color="#FDF53F"/>
<stop offset="1" stop-color="#D93C65"/>
</linearGradient>
<linearGradient id="paint23_linear_1616_1723" x1="318.774" y1="368.467" x2="391.807" y2="447.906" gradientUnits="userSpaceOnUse">
<stop stop-color="#09005D"/>
<stop offset="1" stop-color="#1A0F91"/>
</linearGradient>
<linearGradient id="paint24_linear_1616_1723" x1="342.479" y1="374.367" x2="335.992" y2="374.367" gradientUnits="userSpaceOnUse">
<stop stop-color="#FEBBBA"/>
<stop offset="1" stop-color="#FF928E"/>
</linearGradient>
<linearGradient id="paint25_linear_1616_1723" x1="357.862" y1="324.766" x2="336.412" y2="324.766" gradientUnits="userSpaceOnUse">
<stop stop-color="#4F52FF"/>
<stop offset="1" stop-color="#4042E2"/>
</linearGradient>
<linearGradient id="paint26_linear_1616_1723" x1="335.158" y1="353.405" x2="408.19" y2="432.845" gradientUnits="userSpaceOnUse">
<stop stop-color="#09005D"/>
<stop offset="1" stop-color="#1A0F91"/>
</linearGradient>
<linearGradient id="paint27_linear_1616_1723" x1="365.859" y1="374.035" x2="360.258" y2="374.035" gradientUnits="userSpaceOnUse">
<stop stop-color="#FEBBBA"/>
<stop offset="1" stop-color="#FF928E"/>
</linearGradient>
<linearGradient id="paint28_linear_1616_1723" x1="371.896" y1="324.063" x2="341.445" y2="324.063" gradientUnits="userSpaceOnUse">
<stop stop-color="#4F52FF"/>
<stop offset="1" stop-color="#4042E2"/>
</linearGradient>
<linearGradient id="paint29_linear_1616_1723" x1="-3186.56" y1="-859.185" x2="-3034.62" y2="-811.706" gradientUnits="userSpaceOnUse">
<stop stop-color="#FF928E"/>
<stop offset="1" stop-color="#FE7062"/>
</linearGradient>
<linearGradient id="paint30_linear_1616_1723" x1="315.785" y1="205.128" x2="282.644" y2="205.128" gradientUnits="userSpaceOnUse">
<stop stop-color="#FEBBBA"/>
<stop offset="1" stop-color="#FF928E"/>
</linearGradient>
<linearGradient id="paint31_linear_1616_1723" x1="290.026" y1="199.572" x2="312.265" y2="250.17" gradientUnits="userSpaceOnUse">
<stop stop-color="#FEBBBA"/>
<stop offset="1" stop-color="#FF928E"/>
</linearGradient>
<linearGradient id="paint32_linear_1616_1723" x1="282.802" y1="182.72" x2="273.523" y2="168.453" gradientUnits="userSpaceOnUse">
<stop stop-color="#FEBBBA"/>
<stop offset="1" stop-color="#FF928E"/>
</linearGradient>
<linearGradient id="paint33_linear_1616_1723" x1="-3180.33" y1="-879.1" x2="-3028.4" y2="-831.621" gradientUnits="userSpaceOnUse">
<stop stop-color="#FF928E"/>
<stop offset="1" stop-color="#FE7062"/>
</linearGradient>
<linearGradient id="paint34_linear_1616_1723" x1="388.306" y1="252.071" x2="346.365" y2="252.071" gradientUnits="userSpaceOnUse">
<stop stop-color="#FEBBBA"/>
<stop offset="1" stop-color="#FF928E"/>
</linearGradient>
<linearGradient id="paint35_linear_1616_1723" x1="333.676" y1="222.251" x2="310.614" y2="318.342" gradientUnits="userSpaceOnUse">
<stop stop-color="#09005D"/>
<stop offset="1" stop-color="#1A0F91"/>
</linearGradient>
<linearGradient id="paint36_linear_1616_1723" x1="319.237" y1="207.106" x2="324.148" y2="228.674" gradientUnits="userSpaceOnUse">
<stop stop-color="#4F52FF"/>
<stop offset="1" stop-color="#4042E2"/>
</linearGradient>
<linearGradient id="paint37_linear_1616_1723" x1="321.807" y1="216.153" x2="324.156" y2="230.247" gradientUnits="userSpaceOnUse">
<stop stop-color="#4F52FF"/>
<stop offset="1" stop-color="#4042E2"/>
</linearGradient>
<linearGradient id="paint38_linear_1616_1723" x1="349.479" y1="247.673" x2="336.412" y2="247.673" gradientUnits="userSpaceOnUse">
<stop stop-color="#FEBBBA"/>
<stop offset="1" stop-color="#FF928E"/>
</linearGradient>
<linearGradient id="paint39_linear_1616_1723" x1="356.101" y1="207.234" x2="339.519" y2="207.234" gradientUnits="userSpaceOnUse">
<stop stop-color="#FEBBBA"/>
<stop offset="1" stop-color="#FF928E"/>
</linearGradient>
<linearGradient id="paint40_linear_1616_1723" x1="341.732" y1="184.546" x2="342.555" y2="219.884" gradientUnits="userSpaceOnUse">
<stop stop-color="#FEBBBA"/>
<stop offset="1" stop-color="#FF928E"/>
</linearGradient>
<linearGradient id="paint41_linear_1616_1723" x1="350.987" y1="199.554" x2="330.324" y2="184.678" gradientUnits="userSpaceOnUse">
<stop stop-color="#09005D"/>
<stop offset="1" stop-color="#1A0F91"/>
</linearGradient>
<linearGradient id="paint42_linear_1616_1723" x1="354.021" y1="220.909" x2="350.394" y2="196.685" gradientUnits="userSpaceOnUse">
<stop stop-color="#FEBBBA"/>
<stop offset="1" stop-color="#FF928E"/>
</linearGradient>
</defs>
</svg>
