<svg width="413" height="285" viewBox="0 0 413 285" fill="none" xmlns="http://www.w3.org/2000/svg">
<path d="M402.12 284.493H10.0039C4.48091 284.493 0.00390625 280.016 0.00390625 274.493V10.135C0.00390625 4.61201 4.48091 0.13501 10.0039 0.13501H402.119C407.642 0.13501 412.119 4.61201 412.119 10.135V274.493C412.12 280.016 407.642 284.493 402.12 284.493Z" fill="white"/>
<path d="M412.12 10.132V21.402H0V10.132C0 4.61196 4.48 0.131958 10 0.131958H402.12C407.64 0.131958 412.12 4.61196 412.12 10.132Z" fill="#2C2F37"/>
<path d="M188.921 36.626V90.231H135.316C135.316 60.62 159.319 36.626 188.921 36.626Z" fill="#518F60"/>
<path d="M242.527 90.231C242.527 105.036 236.526 118.431 226.824 128.133L188.922 90.231L226.824 52.329C236.526 62.022 242.527 75.425 242.527 90.231Z" fill="#EBB044"/>
<path d="M226.824 52.329L188.922 90.231V36.626C203.727 36.626 217.13 42.627 226.824 52.329Z" fill="#D82F3C"/>
<path d="M226.823 128.132C217.13 137.834 203.726 143.835 188.921 143.835C159.319 143.835 135.316 119.832 135.316 90.23H188.921L226.823 128.132Z" fill="#5766CC"/>
<path d="M288.117 44.6899C292.822 44.6899 297.133 46.3939 300.443 49.2349L305.901 42.8499C301.121 38.7499 294.909 36.2799 288.117 36.2799C282.979 36.2799 278.175 37.6879 274.062 40.1579L278.372 47.3709C281.225 45.6649 284.548 44.6899 288.117 44.6899Z" fill="#D82F3C"/>
<path d="M301.207 77.4299C297.811 80.6779 293.192 82.6659 288.116 82.6659C280.904 82.6659 274.629 78.6519 271.406 72.7239L264.008 76.7259C268.652 85.2719 277.704 91.0769 288.116 91.0769C295.452 91.0769 302.097 88.1999 307 83.5059L301.207 77.4299Z" fill="#518F60"/>
<path d="M315.508 63.6719C315.508 71.4779 312.248 78.5289 306.999 83.5069L301.207 77.4309C304.838 73.9729 307.098 69.0949 307.098 63.6729C307.098 57.8929 304.517 52.7179 300.441 49.2349L305.9 42.8499C311.778 47.8639 315.508 55.3359 315.508 63.6719Z" fill="#5766CC"/>
<path d="M269.122 63.672C269.122 66.957 269.95 70.033 271.407 72.725L264.009 76.727C261.909 72.849 260.711 68.403 260.711 63.673C260.711 53.682 266.059 44.938 274.062 40.158L278.372 47.371C272.827 50.692 269.122 56.744 269.122 63.672Z" fill="#D82F3C"/>
<path d="M363.202 44.1899C367.908 44.1899 372.218 45.8939 375.528 48.7349L380.987 42.3499C376.207 38.2499 369.995 35.7799 363.203 35.7799C358.065 35.7799 353.261 37.1879 349.148 39.6579L353.458 46.8709C356.31 45.1649 359.633 44.1899 363.202 44.1899Z" fill="#518F60"/>
<path d="M376.293 76.9299C372.897 80.1779 368.278 82.1659 363.202 82.1659C355.989 82.1659 349.715 78.1519 346.492 72.2239L339.094 76.2249C343.738 84.7709 352.791 90.5759 363.202 90.5759C370.538 90.5759 377.183 87.6979 382.086 83.0049L376.293 76.9299Z" fill="#D82F3C"/>
<path d="M390.594 63.1719C390.594 70.9769 387.334 78.0289 382.085 83.0069L376.293 76.9309C379.924 73.4729 382.184 68.5939 382.184 63.1729C382.184 57.3929 379.603 52.2179 375.527 48.7349L380.986 42.3499C386.864 47.3639 390.594 54.8359 390.594 63.1719Z" fill="#EBB044"/>
<path d="M344.208 63.1719C344.208 66.4569 345.036 69.5319 346.493 72.2249L339.095 76.2259C336.995 72.3479 335.797 67.9019 335.797 63.1719C335.797 53.1799 341.145 44.4369 349.148 39.6569L353.458 46.8699C347.913 50.1919 344.208 56.2439 344.208 63.1719Z" fill="#EBB044"/>
<path d="M25.8945 81.869V262.556H173.944V186.189C174.359 180.071 171.818 173.579 167.381 169.348C162.944 165.116 156.583 162.986 150.492 163.69C143.893 164.454 138.113 168.248 132.202 171.28C126.292 174.312 119.345 176.675 113.104 174.401C105.423 171.603 101.645 162.689 101.358 154.519C101.07 146.349 103.359 138.302 103.703 130.134C104.466 112.002 94.8075 93.794 79.3685 84.256C63.9285 74.719 44.0415 81.869 25.8945 81.869Z" fill="#E8EBFC"/>
<path d="M187.778 262.056H18.0312V263.056H187.778V262.056Z" fill="#A4ACE3"/>
<path d="M185.785 264.251L187.481 262.556L185.785 260.861H187.224L188.92 262.556L187.224 264.251H185.785Z" fill="#A4ACE3"/>
<path d="M26.3984 60.549H25.3984V271.473H26.3984V60.549Z" fill="#A4ACE3"/>
<path d="M27.5931 62.541L25.8981 60.845L24.2031 62.541V61.102L25.8981 59.406L27.5931 61.102V62.541Z" fill="#A4ACE3"/>
<path d="M54.5625 68.217H53.5625V262.664H54.5625V68.217Z" fill="#A4ACE3"/>
<path d="M82.8086 77.931H81.8086V262.663H82.8086V77.931Z" fill="#A4ACE3"/>
<path d="M111.016 154.996H110.016V262.664H111.016V154.996Z" fill="#A4ACE3"/>
<path d="M139.223 157.817H138.223V262.664H139.223V157.817Z" fill="#A4ACE3"/>
<path d="M167.43 161.363H166.43V262.664H167.43V161.363Z" fill="#A4ACE3"/>
<path d="M393.51 203.036H199.598V202.036H392.51V96.3629H393.51V203.036Z" fill="#A4ACE3"/>
<path d="M391.312 98.354L393.008 96.658L394.703 98.354V96.915L393.008 95.22L391.312 96.915V98.354Z" fill="#A4ACE3"/>
<path d="M201.588 200.84L199.892 202.535L201.588 204.231H200.148L198.453 202.535L200.148 200.84H201.588Z" fill="#A4ACE3"/>
<path d="M204.513 184.692L203.895 183.906L235.453 159.081C235.632 158.939 235.884 158.937 236.064 159.076L263.069 179.534L296.498 123.818C296.579 123.683 296.719 123.594 296.876 123.578C297.031 123.564 297.187 123.62 297.294 123.736L347 177.571L381.813 107.22L382.709 107.663L347.573 178.665C347.5 178.812 347.359 178.914 347.196 178.938C347.036 178.964 346.868 178.903 346.758 178.782L297.011 124.904L263.64 180.526C263.567 180.647 263.446 180.732 263.306 180.759C263.167 180.786 263.023 180.752 262.91 180.667L235.768 160.106L204.513 184.692Z" fill="#A4ACE3"/>
<path d="M235.762 162.473C237.419 162.473 238.762 161.13 238.762 159.473C238.762 157.816 237.419 156.473 235.762 156.473C234.105 156.473 232.762 157.816 232.762 159.473C232.762 161.13 234.105 162.473 235.762 162.473Z" fill="#EBB044"/>
<path d="M263.211 183.268C264.868 183.268 266.211 181.925 266.211 180.268C266.211 178.611 264.868 177.268 263.211 177.268C261.554 177.268 260.211 178.611 260.211 180.268C260.211 181.925 261.554 183.268 263.211 183.268Z" fill="#EBB044"/>
<path d="M296.891 127.154C298.547 127.154 299.891 125.811 299.891 124.154C299.891 122.497 298.547 121.154 296.891 121.154C295.234 121.154 293.891 122.497 293.891 124.154C293.891 125.811 295.234 127.154 296.891 127.154Z" fill="#EBB044"/>
<path d="M346.742 180.268C348.399 180.268 349.742 178.925 349.742 177.268C349.742 175.611 348.399 174.268 346.742 174.268C345.085 174.268 343.742 175.611 343.742 177.268C343.742 178.925 345.085 180.268 346.742 180.268Z" fill="#EBB044"/>
<path d="M211.879 221.166H198.453V234.591H211.879V221.166Z" fill="#518F60"/>
<path d="M211.879 248.469H198.453V261.895H211.879V248.469Z" fill="#D82F3C"/>
<path d="M222.26 231.378H287.602V224.378H222.26V231.378Z" fill="#A4ACE3"/>
<path d="M222.26 258.682H287.602V251.682H222.26V258.682Z" fill="#A4ACE3"/>
<path d="M316.789 221.166H303.363V234.591H316.789V221.166Z" fill="#5766CC"/>
<path d="M316.789 248.469H303.363V261.895H316.789V248.469Z" fill="#EBB044"/>
<path d="M327.17 231.378H392.512V224.378H327.17V231.378Z" fill="#A4ACE3"/>
<path d="M327.17 258.682H392.512V251.682H327.17V258.682Z" fill="#A4ACE3"/>
</svg>
